<?xml-stylesheet href="defaultstyles.css" type="text/css"?>
<svg xmlns="http://www.w3.org/2000/svg" xmlns:d="http://www.mathworks.com/blockgraphics" xmlns:xlink="http://www.w3.org/1999/xlink" version="1.1" id="svg_5" width="5874" height="3624" viewBox="-12 -462 5874 3624" d:options="Foreground:PortStyled;StrokeScaling:PortStyled;StrokeScalingOnResize:NonScaling;LineExtension:On;Rotate:On;Resize:FitToBlock;Frame:Off;Clipping:None;PreAdjustSize:CropToContent;PreAdjustStrokeWidth:Normalized;Geometric:Off;Port:Auto Majority">
	<g id="layer_4" title="layer_0">
		<g id="group_12" fill="none">
			<rect id="rect_8" stroke="#000000" stroke-width="8px" x="1350" y="585" width="3195" height="1575" rx="0" ry="0"/>
			<path id="path_9" stroke="#000000" stroke-width="8px" d=" M 0,1350 L 1350,1350"/>
			<path id="path_10" stroke="#000000" stroke-width="8px" d=" M 4545,1350 L 5850,1350"/>
			<rect id="rect_11" stroke="#ffffff" stroke-width="8px" x="0" y="-450" width="5850" height="3600" rx="0" ry="0"/>
		</g>
		<path id="path_99" class="path" d=" M 1519.16,876.9200000000001 C 1830.8500000000001,669.23 1869.3100000000002,976.9200000000001 2100.08,876.9200000000001 C 2330.8500000000004,776.9200000000001 2277,769.23 2377,769.23 C 2477,769.23 2523.1500000000005,876.9200000000001 2638.54,876.9200000000001 C 2753.9300000000003,876.9200000000001 2788.54,769.23 2925.08,769.23 C 3061.62,769.23 3115.4700000000003,876.9200000000001 3223.16,876.9200000000001 C 3330.8500000000004,876.9200000000001 3423.16,769.23 3523.16,769.23 C 3623.16,769.23 3653.92,876.9200000000001 3807.7700000000004,876.9200000000001 C 3961.62,876.9200000000001 3946.2300000000005,769.23 4069.3100000000004,769.23 C 4192.39,769.23 4250.24,876.9200000000001 4330.85,876.9200000000001"/>
		<path id="path_101" class="path" d=" M 1519.153076923077,969.2330769230769 C 1830.843076923077,761.5430769230768 1869.303076923077,1069.2330769230769 2100.073076923077,969.2330769230769 C 2330.8430769230768,869.2330769230769 2276.9930769230773,861.5430769230768 2376.9930769230773,861.5430769230768 C 2476.9930769230773,861.5430769230768 2523.143076923077,969.2330769230769 2638.5330769230773,969.2330769230769 C 2753.9230769230767,969.2330769230769 2788.5330769230773,861.5430769230768 2925.073076923077,861.5430769230768 C 3061.613076923077,861.5430769230768 3115.4630769230766,969.2330769230769 3223.153076923077,969.2330769230769 C 3330.8430769230768,969.2330769230769 3423.153076923077,861.5430769230768 3523.153076923077,861.5430769230768 C 3623.153076923077,861.5430769230768 3653.9130769230774,969.2330769230769 3807.763076923077,969.2330769230769 C 3961.613076923077,969.2330769230769 3946.223076923077,861.5430769230768 4069.303076923077,861.5430769230768 C 4192.383076923077,861.5430769230768 4250.2330769230775,969.2330769230769 4330.843076923078,969.2330769230769"/>
		<path id="path_102" class="path" d=" M 1519.1530769230772,1069.2330769230769 C 1830.843076923077,861.5430769230768 1869.303076923077,1169.2330769230769 2100.0730769230768,1069.2330769230769 C 2330.843076923077,969.2330769230769 2276.993076923077,961.5430769230768 2376.993076923077,961.5430769230768 C 2476.993076923077,961.5430769230768 2523.1430769230765,1069.2330769230769 2638.533076923077,1069.2330769230769 C 2753.923076923077,1069.2330769230769 2788.533076923077,961.5430769230768 2925.0730769230768,961.5430769230768 C 3061.6130769230767,961.5430769230768 3115.463076923077,1069.2330769230769 3223.1530769230767,1069.2330769230769 C 3330.843076923077,1069.2330769230769 3423.1530769230767,961.5430769230768 3523.1530769230767,961.5430769230768 C 3623.1530769230767,961.5430769230768 3653.913076923077,1069.2330769230769 3807.7630769230773,1069.2330769230769 C 3961.6130769230767,1069.2330769230769 3946.2230769230764,961.5430769230768 4069.3030769230772,961.5430769230768 C 4192.383076923077,961.5430769230768 4250.233076923077,1069.2330769230769 4330.843076923077,1069.2330769230769"/>
		<g id="group_119">
			<line id="line_113" class="line" x1="1607.69" y1="2160" x2="1669.23" y2="1089.84"/>
			<path id="path_118" class="path" d=" M 1692.31,1089.84 L 1784.62,1089.84 L 1853.85,2160"/>
		</g>
		<g id="group_122">
			<line id="line_120" class="line" x1="2215.38" y1="2160" x2="2276.92" y2="1089.84"/>
			<path id="path_121" class="path" d=" M 2300.003076923077,1089.8330769230768 L 2392.3130769230766,1089.8330769230768 L 2461.543076923077,2159.993076923077"/>
		</g>
		<g id="group_125">
			<line id="line_123" class="line" x1="2801.92" y1="2159.99" x2="2863.46" y2="1089.83"/>
			<path id="path_124" class="path" d=" M 2886.536153846154,1089.8361538461536 L 2978.8461538461534,1089.8361538461536 L 3048.076153846154,2159.996153846154"/>
		</g>
		<g id="group_128">
			<line id="line_126" class="line" x1="3392.31" y1="2159.99" x2="3453.85" y2="1089.83"/>
			<path id="path_127" class="path" d=" M 3476.9292307692303,1089.8292307692307 L 3569.2392307692307,1089.8292307692307 L 3638.4692307692308,2159.9892307692307"/>
		</g>
		<g id="group_131">
			<line id="line_129" class="line" x1="3961.54" y1="2159.99" x2="4023.08" y2="1089.83"/>
			<path id="path_130" class="path" d=" M 4046.1523076923077,1089.8323076923075 L 4138.462307692307,1089.8323076923075 L 4207.692307692308,2159.9923076923073"/>
		</g>
	</g>
</svg>
