<?xml-stylesheet href="defaultstyles.css" type="text/css"?>
<svg xmlns="http://www.w3.org/2000/svg" xmlns:d="http://www.mathworks.com/blockgraphics" xmlns:xlink="http://www.w3.org/1999/xlink" version="1.1" id="svg_5" width="5874" height="3624" viewBox="-12 -462 5874 3624" d:options="Foreground:PortStyled;StrokeScaling:PortStyled;StrokeScalingOnResize:NonScaling;LineExtension:On;Rotate:On;Resize:FitToBlock;Frame:Off;Clipping:None;PreAdjustSize:CropToContent;PreAdjustStrokeWidth:Normalized;Geometric:Off;Port:Auto Majority">
	<g id="layer_5" title="layer_0">
		<g id="group_12" fill="none">
			<rect id="rect_8" stroke="#000000" stroke-width="8px" x="1350" y="585" width="3195" height="1575" rx="0" ry="0"/>
			<path id="path_9" stroke="#000000" stroke-width="8px" d=" M 0,1350 L 1350,1350"/>
			<path id="path_10" stroke="#000000" stroke-width="8px" d=" M 4545,1350 L 5135.73,1350"/>
			<rect id="rect_11" stroke="#ffffff" stroke-width="8px" x="0" y="-450" width="5850" height="3600" rx="0" ry="0"/>
		</g>
		<g id="group_20" d:options="ScalingOnResizeMax:10">
			<title>
				Layer 1			</title>
			<g id="svg_1" fill="none" stroke-width=".025in">
				<ellipse id="svg_2" stroke="#000000" stroke-width="8" cx="2922.87" cy="1347.74" rx="413.52" ry="437.58"/>
				<path id="svg_3" stroke="#000000" stroke-width="8" d=" M 2509.35,1347.74 L 2213.91,1347.74"/>
				<rect id="svg_4" stroke="#ffffff" stroke-width="8" style="stroke:none;" x="2213.91" y="597.53" width="1422.18" height="1504.93" rx="0" ry="0"/>
				<path id="path_21" stroke="#000000" stroke-width="8" d=" M 3336.65,1347.74 L 3632.09,1347.74"/>
				<path id="svg_6" stroke="#000000" stroke-width="8" d=" M 3336.65,1347.75 L 3135.77,1222.8 L 3135.77,1472.96 L 3336.65,1347.75 Z"/>
			</g>
		</g>
		<path id="path_38" stroke="#000000" stroke-width="8px" d=" M 5136.73,450 L 5780.17,450"/>
		<path id="path_39" stroke="#000000" stroke-width="8px" transform="matrix(0,1,-1,0,6051.21484,-4222.25488)" d=" M 4672.26,914.48 L 5601.21,914.48"/>
		<path id="path_40" stroke="#000000" stroke-width="8px" transform="matrix(1,0,0,1,0,0)" d=" M 4545.99,2250 L 5824.62,2250"/>
		<ellipse id="ellipse_10" stroke="#000000" stroke-width="8" cx="2925" cy="1349.99" rx="51.42" ry="51.42"/>
	</g>
</svg>
