<?xml-stylesheet href="defaultstyles.css" type="text/css"?>
<svg xmlns="http://www.w3.org/2000/svg" xmlns:d="http://www.mathworks.com/blockgraphics" xmlns:xlink="http://www.w3.org/1999/xlink" version="1.1" id="svg_121" width="10824" height="5424" viewBox="-12 -12 10824 5424" d:options="Foreground:PortStyled;StrokeScaling:PortStyled;StrokeScalingOnResize:NonScaling;LineExtension:On;Rotate:On;Resize:FitToBlock;Frame:Off;Clipping:None;PreAdjustSize:CropToContent;PreAdjustStrokeWidth:Normalized;Geometric:Off;Port:Auto Majority">
	<g id="layer_120" title="layer_0">
		<g id="group_133" fill="none">
			<rect id="rect_122" stroke="#ffffff" stroke-width="8px" x="0" y="0" width="10800" height="5400" rx="0" ry="0"/>
			<path id="path_123" stroke="#000000" stroke-width="8px" d=" M 0,4050 L 4500,4050"/>
			<path id="path_124" stroke="#000000" stroke-width="8px" d=" M 7875,675 L 7875,225 L 2925,225 L 2925,1125"/>
			<path id="path_125" stroke="#000000" stroke-width="8px" d=" M 2925,4275 L 2925,5175 L 7875,5175 L 7875,4725"/>
			<path id="path_126" stroke="#000000" stroke-width="8px" d=" M 7875,1125 L 7875,2475"/>
			<path id="path_127" stroke="#000000" stroke-width="8px" d=" M 2925,1575 L 2925,3825"/>
			<path id="path_128" stroke="#000000" stroke-width="8px" d=" M 10800,2700 L 6300,2700"/>
			<path id="path_129" stroke="#000000" stroke-width="8px" d=" M 10800,900 L 6300,900"/>
			<path id="path_130" stroke="#000000" stroke-width="8px" d=" M 10800,4500 L 6300,4500"/>
			<path id="path_131" stroke="#000000" stroke-width="8px" d=" M 7875,2925 L 7875,4275"/>
			<path id="path_132" stroke="#000000" stroke-width="8px" d=" M 0,1350 L 1935,1350 L 1935,900 L 2700,1350 L 1935,1800 L 1935,900 L 2700,1350 L 4500,1350"/>
		</g>
		<g id="group_97">
			<path id="path_72" class="path" d=" M 501.67,5185 Q 940.75,3145.98 1379.84,3145.48 Q 1819.92,3145.98 2260,5185"/>
			<line id="line_89" class="line" x1="2260" y1="5185" x2="2051.67" y2="4976.67"/>
			<line id="line_96" class="line" x1="2260" y1="5185" x2="2401.67" y2="4976.67"/>
		</g>
		<g id="group_101">
			<path id="path_98" class="path" d=" M 8318.34,5185 Q 8757.42,3145.98 9196.51,3145.48 Q 9636.59,3145.98 10076.67,5185"/>
			<line id="line_99" class="line" x1="10076.67" y1="5185" x2="9868.34" y2="4976.67"/>
			<line id="line_100" class="line" x1="10076.67" y1="5185" x2="10218.34" y2="4976.67"/>
		</g>
	</g>
</svg>
