<?xml-stylesheet href="defaultstyles.css" type="text/css"?>
<svg xmlns="http://www.w3.org/2000/svg" xmlns:d="http://www.mathworks.com/blockgraphics" xmlns:xlink="http://www.w3.org/1999/xlink" version="1.1" id="svg_7" width="10824" height="5424" viewBox="-12 -12 10824 5424" d:options="Foreground:PortStyled;StrokeScaling:PortStyled;StrokeScalingOnResize:NonScaling;LineExtension:On;Rotate:On;Resize:FitToBlock;Frame:Off;Clipping:None;PreAdjustSize:CropToContent;PreAdjustStrokeWidth:Normalized;Geometric:Off;Port:Auto Majority">
	<g id="layer_6" title="layer_0">
		<g id="group_15" fill="none">
			<rect id="rect_8" stroke="#ffffff" stroke-width="8px" x="0" y="0" width="10800" height="5400" rx="0" ry="0"/>
			<path id="path_9" stroke="#000000" stroke-width="8px" d=" M 0,4050 L 4500,4050"/>
			<path id="path_10" stroke="#000000" stroke-width="8px" d=" M 7875,2475 L 7875,225 L 2925,225 L 2925,1125"/>
			<path id="path_11" stroke="#000000" stroke-width="8px" d=" M 2925,4275 L 2925,5175 L 7875,5175 L 7875,2925"/>
			<path id="path_12" stroke="#000000" stroke-width="8px" d=" M 2925,1575 L 2925,3825"/>
			<path id="path_13" stroke="#000000" stroke-width="8px" d=" M 10800,2700 L 6300,2700"/>
			<path id="path_14" stroke="#000000" stroke-width="8px" d=" M 0,1350 L 1935,1350 L 1935,900 L 2700,1350 L 1935,1800 L 1935,900 L 2700,1350 L 4500,1350"/>
		</g>
		<g id="group_97">
			<path id="path_72" class="path" d=" M 644.5271428571428,5327.857142857143 Q 1083.607142857143,3288.8371428571427 1522.6971428571428,3288.3371428571427 Q 1962.777142857143,3288.8371428571427 2402.8571428571427,5327.857142857143"/>
			<line id="line_89" class="line" x1="2402.8571428571427" y1="5327.857142857143" x2="2194.5271428571427" y2="5119.527142857143"/>
			<line id="line_96" class="line" x1="2402.8571428571427" y1="5327.857142857143" x2="2544.5271428571427" y2="5119.527142857143"/>
		</g>
		<g id="group_101">
			<path id="path_98" class="path" d=" M 8461.197142857143,5327.857142857143 Q 8900.277142857143,3288.8371428571427 9339.367142857143,3288.3371428571427 Q 9779.447142857143,3288.8371428571427 10219.527142857143,5327.857142857143"/>
			<line id="line_99" class="line" x1="10219.527142857143" y1="5327.857142857143" x2="10011.197142857143" y2="5119.527142857143"/>
			<line id="line_100" class="line" x1="10219.527142857143" y1="5327.857142857143" x2="10361.197142857143" y2="5119.527142857143"/>
		</g>
	</g>
</svg>
