<?xml-stylesheet href="defaultstyles.css" type="text/css"?>
<svg xmlns="http://www.w3.org/2000/svg" xmlns:d="http://www.mathworks.com/blockgraphics" xmlns:xlink="http://www.w3.org/1999/xlink" version="1.1" id="svg_104" width="10824" height="5424" d:options="Foreground:PortStyled;StrokeScaling:PortStyled;StrokeScalingOnResize:NonScaling;LineExtension:On;Rotate:On;Resize:FitToBlock;Frame:Off;Clipping:None;PreAdjustSize:CropToContent;PreAdjustStrokeWidth:Normalized;Geometric:Off;Port:Auto Majority">
	<g id="layer_103" title="layer_0">
		<g id="group_105">
			<title>
				Layer 1			</title>
			<rect id="svg_2" fill="#000000" fill-opacity="0" stroke="#ffffff" stroke-width="8px" x="0" y="0" width="10800" height="5400" rx="0" ry="0"/>
			<path id="svg_3" fill-opacity="0" stroke="#000000" stroke-width="8px" d:options="Port:L1;" d=" M 0,4050 L 4500,4050"/>
			<path id="svg_4" fill-opacity="0" stroke="#000000" stroke-width="8px" d:options="Port:L0;" d=" M 2925,1575 L 2925,3825"/>
			<path id="svg_5" fill-opacity="0" stroke="#000000" stroke-width="8px" d:options="Port:L0;" d=" M 2925,4275 L 2925,5175 L 7875,5175 L 7875,225 L 2925,225 L 2925,1125"/>
			<path id="svg_6" fill-opacity="0" stroke="#000000" stroke-width="8px" d:options="Port:L0;" d=" M 0,1350 L 1935,1350 L 1935,900 L 2700,1350 L 1935,1800 L 1935,900 L 2700,1350 L 4500,1350"/>
		</g>
		<g id="group_97">
			<path id="path_72" class="path" d=" M 634.5271428571428,5317.857142857143 Q 1073.607142857143,3278.8371428571427 1512.6971428571428,3278.3371428571427 Q 1952.777142857143,3278.8371428571427 2392.8571428571427,5317.857142857143"/>
			<line id="line_89" class="line" x1="2392.8571428571427" y1="5317.857142857143" x2="2184.5271428571427" y2="5109.527142857143"/>
			<line id="line_96" class="line" x1="2392.8571428571427" y1="5317.857142857143" x2="2534.5271428571427" y2="5109.527142857143"/>
		</g>
	</g>
</svg>
