<!-- Creator: fig2dev Version 3.2.6a -->
<!-- CreationDate: 2018-04-20 16:15:13 -->
<!-- Magnification: 1.05 -->
<svg width="10824" height="7224" xmlns="http://www.w3.org/2000/svg" xmlns:d="http://www.mathworks.com/blockgraphics">
 <g>
  <title>Layer 1</title>
  <!-- Arc -->
  <path fill-opacity="0" d:options="Port:R0" fill="#000000" id="svg_2" stroke-width="8px" stroke="#000000" d="m8100,-900a1125,1125 0 0 1 0,1800"/>
  <!-- Ellipse -->
  <ellipse fill-opacity="0" d:options="Port:L0" fill="#000000" id="svg_3" stroke-width="8px" stroke="#000000" ry="900" rx="450" cy="0" cx="2700"/>
  <!-- Line -->
  <polyline fill-opacity="0" d:options="Port:L0" id="svg_4" stroke-width="8px" stroke="#000000" points=" 2700,0 1800,0 1350,-270 1350,270 1800,0 1350,-270 1350,0 900,0 450,-1800 0,-1800 "/>
  <!-- Line -->
  <polyline fill-opacity="0" d:options="Port:L0" id="svg_5" stroke-width="8px" stroke="#000000" points=" 2700,-900 8100,-900"/>
  <!-- Line -->
  <polyline fill-opacity="0" d:options="Port:L0" id="svg_6" stroke-width="8px" stroke="#000000" points=" 2700,900 4050,900"/>
  <!-- Line -->
  <rect fill-opacity="0" fill="#000000" id="svg_7" stroke-width="8px" stroke="#ffffff" height="7200" width="10800" y="-3600" x="0"/>
  <!-- Line -->
  <polyline fill-opacity="0" d:options="Port:R0" id="svg_8" stroke-width="8px" stroke="#000000" points=" 8550,0 9000,0 9450,-270 9450,270 9000,0 9450,-270 9450,0 10800,0"/>
  <!-- Line -->
  <polyline fill-opacity="0" d:options="Port:L1" id="svg_9" stroke-width="8px" stroke="#000000" points=" 0,1800 5400,1800 5400,900"/>
  <!-- Line -->
  <polyline fill-opacity="0" d:options="Port:L0" id="svg_10" stroke-width="8px" stroke="#000000" points=" 6750,900 8100,900"/>
  <!-- Line -->
  <polyline fill-opacity="0" d:options="Port:L1" id="svg_11" stroke-width="8px" stroke="#000000" points=" 4050,900 6750,900"/>
 </g>
</svg>