<!DOCTYPE svg PUBLIC "-//W3C//DTD SVG 1.1//EN" "http://www.w3.org/Graphics/SVG/1.1/DTD/svg11.dtd">
<!-- Creator: fig2dev Version 3.2 Patchlevel 5e -->
<!-- CreationDate: Mon Sep 26 15:01:41 2016 -->
<!-- Magnification: 1.050 -->
<svg width="8529" height="5694.000000000001" xmlns="http://www.w3.org/2000/svg" xmlns:d="http://www.mathworks.com/blockgraphics">
 <g>
  <title>Layer 1</title>
  <!-- Line: box -->
  <rect fill-opacity="0" d:options="Port:L1" fill="#000000" id="svg_2" stroke="#ffffff" stroke-width="8" height="5669" width="8503" y="0" x="0"/>
  <!-- Line -->
  <polyline fill-opacity="0" d:options="Port:L0" id="svg_3" stroke="#000000" stroke-width="8" points="0,944 944,944 1889,1889 3070,1889 "/>
  <!-- Line -->
  <polyline fill-opacity="0" d:options="Port:R0" id="svg_4" stroke="#000000" stroke-width="8" points="8503,1417 7559,1417 7086,1889 6377,1889 "/>
  <!-- Line -->
  <polyline id="svg_5" stroke="#000000" stroke-width="8" points="0,2834 1889,2834 "/>
  <!-- Line -->
  <polyline fill-opacity="0" d:options="Port:R1" id="svg_6" stroke="#000000" stroke-width="8" points="8503,4251 8031,4251 7086,5196 6614,5196 "/>
  <!-- Line: box -->
  <rect d:options="Port:L1" id="svg_7" stroke="#000000" stroke-width="8" fill="#000000" height="472" width="5669" y="2598" x="1889"/>
  <!-- Line -->
  <polyline d:options="Port:R1" id="svg_8" stroke="#000000" stroke-width="8" fill="#000000" points="6614,236 6614,472 2362,1417 2362,1181 6614,236 "/>
  <!-- Line -->
  <polyline d:options="Port:R1" id="svg_9" stroke="#000000" stroke-width="8" fill="#000000" points="6614,5433 2362,4488 2362,4251 6614,5196 6614,5433 "/>
  <!-- Line -->
  <polyline d:options="Port:L1" id="svg_10" stroke="#000000" stroke-width="8" fill="#000000" points="5905,3070 5905,4582 5669,4535 5669,3070 5905,3070 "/>
  <!-- Line -->
  <polyline d:options="Port:L1" id="svg_11" stroke="#000000" stroke-width="8" fill="#000000" points="5905,2598 5905,1086 5669,1133 5669,2598 5905,2598 "/>
  <!-- Line -->
  <polyline d:options="Port:R1" id="svg_12" stroke="#000000" stroke-width="8" fill="#000000" points="5196,708 5196,2125 4960,2125 4960,708 5196,708 "/>
  <!-- Line -->
  <polyline d:options="Port:R1" id="svg_13" stroke="#000000" stroke-width="8" fill="#000000" points="5196,4960 5196,3543 4960,3543 4960,4960 5196,4960 "/>
  <!-- Line -->
  <polyline d:options="Port:L1" id="svg_14" stroke="#000000" stroke-width="8" fill="#000000" points="4488,2598 4488,1417 4251,1464 4251,2598 4488,2598 "/>
  <!-- Line -->
  <polyline d:options="Port:L1" id="svg_15" stroke="#000000" stroke-width="8" fill="#000000" points="4488,3070 4488,4251 4251,4204 4251,3070 4488,3070 "/>
  <!-- Line -->
  <polyline d:options="Port:R1" id="svg_16" stroke="#000000" stroke-width="8" fill="#000000" points="3779,1039 3779,2125 3543,2125 3543,1039 3779,1039 "/>
  <!-- Line -->
  <polyline d:options="Port:R1" id="svg_17" stroke="#000000" stroke-width="8" fill="#000000" points="3779,4629 3779,3543 3543,3543 3543,4629 3779,4629 "/>
 </g>
</svg>