<?xml-stylesheet href="defaultstyles.css" type="text/css"?>
<svg xmlns="http://www.w3.org/2000/svg" xmlns:d="http://www.mathworks.com/blockgraphics" xmlns:xlink="http://www.w3.org/1999/xlink" version="1.1" id="svg_5" width="5874" height="3624" viewBox="-12 -12 5874 3624" d:options="Foreground:PortStyled;StrokeScaling:PortStyled;StrokeScalingOnResize:NonScaling;LineExtension:On;Rotate:On;Resize:FitToBlock;Frame:Off;Clipping:None;PreAdjustSize:CropToContent;PreAdjustStrokeWidth:Normalized;Geometric:Off;Port:Auto Majority">
	<g id="layer_5" title="layer_0">
		<g id="group_14" fill="none" transform="matrix(1,0,0,1,0,0)">
			<rect id="rect_10" stroke="#ffffff" stroke-width="8px" x="0" y="0" width="5850" height="3600" rx="0" ry="0"/>
			<path id="path_6" stroke="#000000" stroke-width="8px" transform="matrix(1,0,0,1,0,0)" d:options="Port:L0;" d=" M 1800,1315 A 2248,2248 0 0 0  4095,1315"/>
			<path id="path_7" stroke="#000000" stroke-width="8px" transform="matrix(1,0,0,1,0,0)" d:options="Port:L0;" d=" M 1800,2214.93 A 2248,2248 0 0 1  4095,2214.93"/>
			<path id="path_9" stroke="#000000" stroke-width="8px" d=" M 4545.04,1800.02 L 5850,1800"/>
			<path id="path_11" fill="#000000" stroke="#000000" stroke-width="8px" transform="matrix(0.99863,0.05234,-0.05234,0.99863,33.91959,-241.29649)" d:options="Port:L1;" d=" M 5006.33,213.52 L 4242.33,480.52 L 4557.33,840.52 Z"/>
			<rect id="rect_12" stroke="#000000" stroke-width="8px" transform="matrix(1,0,0,1,0,0)" d:options="Port:L0;" x="1368" y="1152" width="3168" height="1296" rx="0" ry="0"/>
			<path id="path_13" stroke="#000000" stroke-width="8px" transform="matrix(1,0,0,1,0,0)" d=" M 0,900 L 710.71,900 L 1368,1800"/>
			<path id="path_8" stroke="#000000" stroke-width="8px" transform="matrix(1,0,0,1,0,0)" d=" M -11.99,2700 L 1716.68,2700.03 L 4624.33,527.04"/>
		</g>
	</g>
</svg>
