<?xml-stylesheet href="defaultstyles.css" type="text/css"?>
<svg xmlns="http://www.w3.org/2000/svg" xmlns:d="http://www.mathworks.com/blockgraphics" xmlns:xlink="http://www.w3.org/1999/xlink" version="1.1" id="svg_5" width="600" height="600" d:options="Foreground:PortStyled;StrokeScaling:PortStyled;StrokeScalingOnResize:NonScaling;LineExtension:On;Rotate:On;Resize:FitToBlock;Frame:Off;Clipping:None;PreAdjustSize:CropToContent;PreAdjustStrokeWidth:Normalized;Geometric:Off;Port:Auto Majority">
	<g id="layer_5" title="layer_0">
		<rect id="box" fill="#000000" fill-opacity="0" stroke="#ffffff" stroke-width="8" transform="matrix(1,0,0,1,0,0)" x="0" y="0" width="600" height="600" rx="0" ry="0"/>
		<g id="group_rot_ports_LConn_1_2" d:options="Port:L0;" d:visible="(rotational_ports == 'sdl.enum.ConnectionType.Conserving' || rotational_ports == '2') &amp;&amp; (translational_ports == 'sdl.enum.ConnectionType.Conserving' || translational_ports == '2')">
			<path id="path_21" class="path" d=" M 0,150 L 136.67,150 L 286.08,284.64"/>
			<path id="path_41" class="path" d=" M 0,450 L 99.32,450 L 261.36,286.27"/>
		</g>
		<g id="group_rotPorts_LConn_2_3" d:options="Port:L1;" d:visible="(rotational_ports == 'sdl.enum.ConnectionType.Conserving' || rotational_ports == '2') &amp;&amp; (translational_ports == 'sdl.enum.ConnectionType.PS' || translational_ports == '1')">
			<path id="path_23" stroke="black" class="path" transform="matrix(1,0,0,1,0,0)" d=" M 0,300 L 155.59,300 L 155.59,159.67 L 310.34,305.55"/>
			<path id="path_14" stroke="black" class="path" transform="matrix(1,0,0,1,0,0)" d=" M 0,500 L 53.95,500 L 258.46,290.87"/>
		</g>
		<g id="main_icon_trans_cons" d:visible="translational_ports == 'sdl.enum.ConnectionType.Conserving' || translational_ports == '2' ">
			<path id="blade" fill="transparent" stroke="black" class="path" style="fill: none;" transform="matrix(0.12185,0.99251,-0.99251,0.12185,3964.79639,5163.28223)" d:options="Port:R1;" d=" M -5306.56,3049.61 Q -5397.21,3002.06 -5432.41,2984.42 C -5467.62,2966.79 -5484.82,2948.58 -5512.42,2931.71 C -5540.02,2914.85 -5555.67,2893.29 -5553.04,2889.55 C -5550.42,2885.8 -5534.21,2861.81 -5531.71,2860 C -5529.21,2858.18 -5487.25,2862.49 -5460.05,2879.53 C -5432.84,2896.57 -5436.88,2889.82 -5392.65,2933.54 Q -5348.42,2977.27 -5297.33,3041.86"/>
			<path id="blade2" fill="transparent" stroke="black" class="path" style="fill: none;stroke-width: 1;" transform="matrix(0.00001,-0.99996,0.99996,0.00001,2739.66138,2433.49414)" d:options="Port:R1;" d=" M 2113.78,-2474.54 Q 2023.04,-2522.07 1987.8,-2539.7 C 1952.56,-2557.32 1935.34,-2575.52 1907.71,-2592.38 C 1880.08,-2609.25 1866.36,-2633.75 1867.04,-2634.52 C 1867.73,-2635.3 1886.62,-2661.97 1888.4,-2664.06 C 1890.18,-2666.17 1932.9,-2661.57 1960.13,-2644.54 C 1987.37,-2627.51 1983.33,-2634.26 2027.61,-2590.55 Q 2071.88,-2546.84 2123.02,-2482.29"/>
			<ellipse id="hub_conserving" fill="#000000" fill-opacity="0" stroke="#000000" stroke-width="8" style="fill-opacity: 1;fill: #000000;" transform="matrix(-0.77712,0.62927,-0.62927,-0.77712,-1007.04358,1486.7251)" d:visible="rotational_ports == 'sdl.enum.ConnectionType.Conserving' || rotational_ports == '2'" cx="-1753.27" cy="119.13" rx="28.5" ry="28.5"/>
			<ellipse id="hub_PS" fill="#000000" fill-opacity="0" stroke="#000000" stroke-width="8" style="fill-opacity: 1;fill: #000000;" transform="matrix(-0.77712,0.62927,-0.62927,-0.77712,-1007.05548,1486.7196)" d:options="Port:L0;" d:visible="rotational_ports == 'sdl.enum.ConnectionType.PS' || rotational_ports == '1'" cx="-1753.28" cy="119.12" rx="28.5" ry="28.5"/>
		</g>
        <g id="main_icon_trans_PS" d:visible="translational_ports == 'sdl.enum.ConnectionType.PS' || translational_ports == '1' ">
			<path id="blade" fill="transparent" stroke="black" class="path" style="fill: none;" transform="matrix(0.12185,0.99251,-0.99251,0.12185,3964.79639,5163.28223)" d:options="Port:R0;" d=" M -5306.56,3049.61 Q -5397.21,3002.06 -5432.41,2984.42 C -5467.62,2966.79 -5484.82,2948.58 -5512.42,2931.71 C -5540.02,2914.85 -5555.67,2893.29 -5553.04,2889.55 C -5550.42,2885.8 -5534.21,2861.81 -5531.71,2860 C -5529.21,2858.18 -5487.25,2862.49 -5460.05,2879.53 C -5432.84,2896.57 -5436.88,2889.82 -5392.65,2933.54 Q -5348.42,2977.27 -5297.33,3041.86"/>
			<path id="blade2" fill="transparent" stroke="black" class="path" style="fill: none;stroke-width: 1;" transform="matrix(0.00001,-0.99996,0.99996,0.00001,2739.66138,2433.49414)" d:options="Port:R0;" d=" M 2113.78,-2474.54 Q 2023.04,-2522.07 1987.8,-2539.7 C 1952.56,-2557.32 1935.34,-2575.52 1907.71,-2592.38 C 1880.08,-2609.25 1866.36,-2633.75 1867.04,-2634.52 C 1867.73,-2635.3 1886.62,-2661.97 1888.4,-2664.06 C 1890.18,-2666.17 1932.9,-2661.57 1960.13,-2644.54 C 1987.37,-2627.51 1983.33,-2634.26 2027.61,-2590.55 Q 2071.88,-2546.84 2123.02,-2482.29"/>
			<ellipse id="hub_conserving" fill="#000000" fill-opacity="0" stroke="#000000" stroke-width="8" style="fill-opacity: 1;fill: #000000;" transform="matrix(-0.77712,0.62927,-0.62927,-0.77712,-1007.04358,1486.7251)" d:visible="rotational_ports == 'sdl.enum.ConnectionType.Conserving' || rotational_ports == '2'" cx="-1753.27" cy="119.13" rx="28.5" ry="28.5"/>
			<ellipse id="hub_PS" fill="#000000" fill-opacity="0" stroke="#000000" stroke-width="8" style="fill-opacity: 1;fill: #000000;" transform="matrix(-0.77712,0.62927,-0.62927,-0.77712,-1007.05548,1486.7196)" d:options="Port:L0;" d:visible="rotational_ports == 'sdl.enum.ConnectionType.PS' || rotational_ports == '1'" cx="-1753.28" cy="119.12" rx="28.5" ry="28.5"/>
		</g>
		<g id="group_trans_ports_RConn_1_2" d:options="Port:R0;" d:visible="(translational_ports == 'sdl.enum.ConnectionType.Conserving' || translational_ports == '2') &amp;&amp; (rotational_ports == 'sdl.enum.ConnectionType.Conserving' || rotational_ports == '2') ">
			<path id="path_54" class="path" d=" M 600,150 L 409.96,150"/>
			<path id="path_67" class="path" d=" M 594.07,450 L 197.54,450"/>
		</g>
		<g id="group_trans_ports_RConn_2_3" d:visible="(translational_ports == 'sdl.enum.ConnectionType.Conserving' || translational_ports == '2') &amp;&amp; (rotational_ports == 'sdl.enum.ConnectionType.PS' || rotational_ports == '1') ">
			<path id="path_24" class="path" d:options="Port:R1;" d:visible="(translational_ports == 'sdl.enum.ConnectionType.Conserving' || translational_ports == '2') &amp;&amp; (rotational_ports == 'sdl.enum.ConnectionType.PS' || rotational_ports == '1') " d=" M 600,300 L 400,300 L 332.68,241.67"/>
			<path id="path_43" class="path" d:options="Port:R1;" d=" M 600,500 L 348.91,500 L 230,385"/>
		</g>
	</g>
</svg>
